<?xml version="1.0" encoding="UTF-8" standalone="no"?>
<!DOCTYPE svg PUBLIC "-//W3C//DTD SVG 1.1//EN" "http://www.w3.org/Graphics/SVG/1.1/DTD/svg11.dtd">
<svg xmlns="http://www.w3.org/2000/svg" version="1.1" viewBox="0.00 0.00 184.00 184.00">
<path fill="#72bf00" d="
  M 160.08 122.82
  C 151.48 147.16 126.73 164.27 102.50 168.05
  C 92.83 169.56 83.03 168.93 73.11 166.14
  C 51.41 160.06 34.27 144.89 24.90 124.29
  C 23.87 122.02 22.64 119.13 22.15 116.63
  C 21.87 115.16 21.04 114.03 20.77 112.73
  C 20.34 110.69 20.12 105.50 19.15 104.01
  C 19.01 103.79 18.92 103.54 18.90 103.28
  C 18.25 96.34 18.09 89.29 19.50 82.43
  C 20.07 79.67 20.28 76.80 21.03 74.23
  C 38.60 13.59 114.34 -0.78 152.16 50.03
  C 152.77 50.86 153.57 52.29 154.55 54.32
  C 154.68 54.59 154.90 54.82 155.17 54.96
  C 155.75 55.27 156.04 55.77 156.03 56.45
  C 156.02 56.77 156.13 57.05 156.35 57.28
  C 157.07 58.05 157.62 58.89 158.00 59.80
  C 158.59 61.22 159.70 62.72 160.00 64.32
  C 160.06 64.65 160.18 64.96 160.36 65.24
  C 161.79 67.41 161.54 70.06 162.97 71.92
  C 163.18 72.19 163.30 72.50 163.34 72.84
  C 163.86 76.89 165.27 81.05 165.61 84.71
  C 166.37 92.81 166.26 100.79 164.63 108.80
  C 163.72 113.31 162.45 117.72 160.82 122.03
  C 160.74 122.25 160.60 122.41 160.39 122.51
  C 160.23 122.59 160.13 122.69 160.08 122.82
  Z"
/>
<path fill="#ffffff" d="
  M 85.78 102.12
  C 85.93 102.06 86.09 101.94 86.26 101.77
  C 94.97 92.95 103.63 84.09 112.25 75.20
  C 114.34 73.04 115.96 71.72 117.10 71.25
  C 121.20 69.54 126.31 74.48 124.64 78.83
  C 124.27 79.78 123.31 81.06 121.74 82.67
  C 111.79 92.88 101.83 103.07 91.86 113.25
  C 87.85 117.35 84.94 118.82 80.48 114.26
  C 74.89 108.56 69.33 102.83 63.78 97.08
  C 61.97 95.21 60.87 93.65 60.46 92.40
  C 58.59 86.62 66.18 82.23 70.39 86.60
  C 75.30 91.70 80.26 96.83 85.25 102.00
  C 85.39 102.15 85.60 102.19 85.78 102.12
  Z"
/>
</svg>
